<mxfile host="app.diagrams.net" modified="2023-04-26T12:41:04.739Z" agent="Mozilla/5.0 (Macintosh; Intel Mac OS X 10_15_7) AppleWebKit/537.36 (KHTML, like Gecko) Chrome/112.0.0.0 Safari/537.36" version="21.2.1" etag="PI_wnKHOy-nIeYcUjfiR" type="github">
  <diagram name="Page-1" id="HCk89WFnYyZ9YNxB7WLO">
    <mxGraphModel>
      <root>
        <mxCell id="0" />
        <mxCell id="1" parent="0" />
      </root>
    </mxGraphModel>
  </diagram>
</mxfile>
